<svg width="28" height="29" viewBox="0 0 28 29" fill="none" xmlns="http://www.w3.org/2000/svg">
<path d="M6.2845 11.6527C7.39742 8.28036 10.5666 5.85837 14.3204 5.85837C16.3383 5.85837 18.1609 6.57439 19.593 7.74606L23.7589 3.58011C21.2203 1.36695 17.9656 0 14.3204 0C8.67586 0 3.81607 3.22007 1.47974 7.93595L6.2845 11.6527Z" fill="#EA4335"/>
<path d="M19.1427 21.4954C17.8422 22.3352 16.1896 22.7823 14.3206 22.7823C10.5812 22.7823 7.4219 20.3788 6.29758 17.0266L1.47693 20.6868C3.81036 25.4109 8.67002 28.6407 14.3206 28.6407C17.8206 28.6407 21.165 27.3964 23.6697 25.06L19.1427 21.4954Z" fill="#34A853"/>
<path d="M23.6695 25.0601C26.289 22.6167 27.99 18.9788 27.99 14.3203C27.99 13.4741 27.8598 12.5628 27.6645 11.7166H14.3204V17.2495H22.0014C21.6224 19.11 20.6051 20.5511 19.1425 21.4955L23.6695 25.0601Z" fill="#4A90E2"/>
<path d="M6.2974 17.0272C6.01259 16.1781 5.85837 15.268 5.85837 14.3208C5.85837 13.3879 6.00795 12.4911 6.28453 11.653L1.47977 7.93628C0.521011 9.85809 0 12.024 0 14.3208C0 16.6115 0.530789 18.7723 1.47675 20.6874L6.2974 17.0272Z" fill="#FBBC05"/>
</svg>
